#Comment line ignore any data following # character 
#Hierarchical Translation and Rotation (.htr) file 
[Header]	
#Header keywords are followed by a single value 
FileType HTR		#Single word string
DataType HTRS		#Translation followed by rotation and scale data
FileVersion 1		#integer
NumSegments 64		#integer
NumFrames 3		#integer
DataFrameRate 30		#integer, data frame rate in this file
EulerRotationOrder ZYX
CalibrationUnits mm
RotationUnits Degrees
GlobalAxisofGravity Y
BoneLengthAxis Y
ScaleFactor 1.00
[SegmentNames&Hierarchy]
#CHILD	PARENT
Pinger_Root GLOBAL
Pelvis Pinger_Root
L_Hip Pelvis
R_Hip Pelvis
Rear_Leg01 Pelvis
Spine1 Pelvis
L_Leg01 L_Hip
L_Leg02 L_Leg01
L_Leg03 L_Leg02
L_Foot L_Leg03
L_Toe1_01 L_Foot
L_Toe2_01 L_Foot
L_Toe3_01 L_Foot
planeAlignerLeft L_Foot
L_Toe1_02 L_Toe1_01
L_Toe1_03 L_Toe1_02
L_Toe2_02 L_Toe2_01
L_Toe2_03 L_Toe2_02
L_Toe3_02 L_Toe3_01
L_Toe3_03 L_Toe3_02
planeLockWeightLeft planeAlignerLeft
R_Leg01 R_Hip
R_Leg02 R_Leg01
R_Leg03 R_Leg02
R_Foot R_Leg03
planeAlignerRight R_Foot
R_Toe1_01 R_Foot
R_Toe2_01 R_Foot
R_Toe3_01 R_Foot
planeLockWeightRight planeAlignerRight
R_Toe1_02 R_Toe1_01
R_Toe1_03 R_Toe1_02
R_Toe2_02 R_Toe2_01
R_Toe2_03 R_Toe2_02
R_Toe3_02 R_Toe3_01
R_Toe3_03 R_Toe3_02
Rear_Leg02 Rear_Leg01
Rear_Leg03 Rear_Leg02
Rear_Leg04 Rear_Leg03
Rear_Foot Rear_Leg04
planeAlignerCenter Rear_Foot
Rear_Toe1_01 Rear_Foot
Rear_Toe2_01 Rear_Foot
Rear_Toe3_01 Rear_Foot
planeLockWeightCenter planeAlignerCenter
Rear_Toe1_02 Rear_Toe1_01
Rear_Toe1_03 Rear_Toe1_02
Rear_Toe2_02 Rear_Toe2_01
Rear_Toe2_03 Rear_Toe2_02
Rear_Toe3_02 Rear_Toe3_01
Rear_Toe3_03 Rear_Toe3_02
Back_Bone Spine1
Head Spine1
Motor_Bone Back_Bone
Ping_Mechanism Back_Bone
BN_LookIK Head
bottomMouth Head
L_Mouth01 Head
L_mouthFront Head
mouthGun Head
R_Mouth01 Head
R_mouthFront Head
TopMouth Head
weapon_bone Head
[BasePosition]
#SegmentName Tx, Ty, Tz, Rx, Ry, Rz, BoneLength
Pinger_Root 0.000000 0.000000 0.000000 -90.000000 0.000000 0.000000 10.000000 
Pelvis 0.000000 0.000000 0.000000 0.000000 0.000000 0.000000 10.000000 
L_Hip 0.000000 0.000000 0.000000 0.000000 0.000000 0.000000 10.000000 
R_Hip 0.000000 0.000000 0.000000 0.000000 0.000000 0.000000 10.000000 
Rear_Leg01 0.000000 0.000000 0.000000 0.000000 0.000000 0.000000 10.000000 
Spine1 0.000000 0.000000 0.000000 0.000000 0.000000 0.000000 10.000000 
L_Leg01 0.000000 0.000000 0.000000 0.000000 0.000000 0.000000 10.000000 
L_Leg02 0.000000 0.000000 0.000000 0.000000 0.000000 0.000000 10.000000 
L_Leg03 0.000000 0.000000 0.000000 0.000000 0.000000 0.000000 10.000000 
L_Foot 0.000000 0.000000 0.000000 0.000000 0.000000 0.000000 10.000000 
L_Toe1_01 0.000000 0.000000 0.000000 0.000000 0.000000 0.000000 10.000000 
L_Toe2_01 0.000000 0.000000 0.000000 0.000000 0.000000 0.000000 10.000000 
L_Toe3_01 0.000000 0.000000 0.000000 0.000000 0.000000 0.000000 10.000000 
planeAlignerLeft 0.000000 0.000000 0.000000 0.000000 0.000000 0.000000 10.000000 
L_Toe1_02 0.000000 0.000000 0.000000 0.000000 0.000000 0.000000 10.000000 
L_Toe1_03 0.000000 0.000000 0.000000 0.000000 0.000000 0.000000 10.000000 
L_Toe2_02 0.000000 0.000000 0.000000 0.000000 0.000000 0.000000 10.000000 
L_Toe2_03 0.000000 0.000000 0.000000 0.000000 0.000000 0.000000 10.000000 
L_Toe3_02 0.000000 0.000000 0.000000 0.000000 0.000000 0.000000 10.000000 
L_Toe3_03 0.000000 0.000000 0.000000 0.000000 0.000000 0.000000 10.000000 
planeLockWeightLeft 0.000000 0.000000 0.000000 0.000000 0.000000 0.000000 10.000000 
R_Leg01 0.000000 0.000000 0.000000 0.000000 0.000000 0.000000 10.000000 
R_Leg02 0.000000 0.000000 0.000000 0.000000 0.000000 0.000000 10.000000 
R_Leg03 0.000000 0.000000 0.000000 0.000000 0.000000 0.000000 10.000000 
R_Foot 0.000000 0.000000 0.000000 0.000000 0.000000 0.000000 10.000000 
planeAlignerRight 0.000000 0.000000 0.000000 0.000000 0.000000 0.000000 10.000000 
R_Toe1_01 0.000000 0.000000 0.000000 0.000000 0.000000 0.000000 10.000000 
R_Toe2_01 0.000000 0.000000 0.000000 0.000000 0.000000 0.000000 10.000000 
R_Toe3_01 0.000000 0.000000 0.000000 0.000000 0.000000 0.000000 10.000000 
planeLockWeightRight 0.000000 0.000000 0.000000 0.000000 0.000000 0.000000 10.000000 
R_Toe1_02 0.000000 0.000000 0.000000 0.000000 0.000000 0.000000 10.000000 
R_Toe1_03 0.000000 0.000000 0.000000 0.000000 0.000000 0.000000 10.000000 
R_Toe2_02 0.000000 0.000000 0.000000 0.000000 0.000000 0.000000 10.000000 
R_Toe2_03 0.000000 0.000000 0.000000 0.000000 0.000000 0.000000 10.000000 
R_Toe3_02 0.000000 0.000000 0.000000 0.000000 0.000000 0.000000 10.000000 
R_Toe3_03 0.000000 0.000000 0.000000 0.000000 0.000000 0.000000 10.000000 
Rear_Leg02 0.000000 0.000000 0.000000 0.000000 0.000000 0.000000 10.000000 
Rear_Leg03 0.000000 0.000000 0.000000 0.000000 0.000000 0.000000 10.000000 
Rear_Leg04 0.000000 0.000000 0.000000 0.000000 0.000000 0.000000 10.000000 
Rear_Foot 0.000000 0.000000 0.000000 0.000000 0.000000 0.000000 10.000000 
planeAlignerCenter 0.000000 0.000000 0.000000 0.000000 0.000000 0.000000 10.000000 
Rear_Toe1_01 0.000000 0.000000 0.000000 0.000000 0.000000 0.000000 10.000000 
Rear_Toe2_01 0.000000 0.000000 0.000000 0.000000 0.000000 0.000000 10.000000 
Rear_Toe3_01 0.000000 0.000000 0.000000 0.000000 0.000000 0.000000 10.000000 
planeLockWeightCenter 0.000000 0.000000 0.000000 0.000000 0.000000 0.000000 10.000000 
Rear_Toe1_02 0.000000 0.000000 0.000000 0.000000 0.000000 0.000000 10.000000 
Rear_Toe1_03 0.000000 0.000000 0.000000 0.000000 0.000000 0.000000 10.000000 
Rear_Toe2_02 0.000000 0.000000 0.000000 0.000000 0.000000 0.000000 10.000000 
Rear_Toe2_03 0.000000 0.000000 0.000000 0.000000 0.000000 0.000000 10.000000 
Rear_Toe3_02 0.000000 0.000000 0.000000 0.000000 0.000000 0.000000 10.000000 
Rear_Toe3_03 0.000000 0.000000 0.000000 0.000000 0.000000 0.000000 10.000000 
Back_Bone 0.000000 0.000000 0.000000 0.000000 0.000000 0.000000 10.000000 
Head 0.000000 0.000000 0.000000 0.000000 0.000000 0.000000 10.000000 
Motor_Bone 0.000000 0.000000 0.000000 0.000000 0.000000 0.000000 10.000000 
Ping_Mechanism 0.000000 0.000000 0.000000 0.000000 0.000000 0.000000 10.000000 
BN_LookIK 0.000000 0.000000 0.000000 0.000000 0.000000 0.000000 10.000000 
bottomMouth 0.000000 0.000000 0.000000 0.000000 0.000000 0.000000 10.000000 
L_Mouth01 0.000000 0.000000 0.000000 0.000000 0.000000 0.000000 10.000000 
L_mouthFront 0.000000 0.000000 0.000000 0.000000 0.000000 0.000000 10.000000 
mouthGun 0.000000 0.000000 0.000000 0.000000 0.000000 0.000000 10.000000 
R_Mouth01 0.000000 0.000000 0.000000 0.000000 0.000000 0.000000 10.000000 
R_mouthFront 0.000000 0.000000 0.000000 0.000000 0.000000 0.000000 10.000000 
TopMouth 0.000000 0.000000 0.000000 0.000000 0.000000 0.000000 10.000000 
weapon_bone 0.000000 0.000000 0.000000 0.000000 0.000000 0.000000 10.000000 
#Beginning of Data. Separated by tabs
#Fr	Tx	Ty	Tz	Rx	Ry	Rz	SF
[Pinger_Root]
238 0.000000 0.000000 0.000000 -0.000075 -0.000000 -0.000020 0.000000
239 0.000000 0.000000 0.000000 -0.000075 -0.000000 -0.000020 0.000000
240 0.000000 0.000000 0.000000 -0.000075 -0.000000 -0.000020 0.000000
[Pelvis]
238 -1404.884277 21021.058594 -3733.186035 -103.335640 -72.549065 95.050507 21396.152344
239 -1491.255859 21145.402344 -3806.710693 -106.488625 -77.443703 98.419365 21537.013672
240 -1562.426270 21269.783203 -3909.871826 -111.724342 -82.442955 103.879272 21682.525391
[L_Hip]
238 5.766392 125.831482 872.656799 -178.253311 -81.787758 87.381340 881.701050
239 5.766392 125.831482 872.656799 -178.253311 -81.787758 87.381340 881.701050
240 5.766392 125.831482 872.656799 -178.253311 -81.787712 87.381248 881.701050
[R_Hip]
238 5.765438 125.836372 -872.654907 -1.746690 81.787712 87.381248 881.699829
239 5.765438 125.836372 -872.654907 -1.746690 81.787712 87.381248 881.699829
240 5.765438 125.836372 -872.654907 -1.746713 81.787666 87.381149 881.699829
[Rear_Leg01]
238 -192.298416 -925.602966 -0.001907 166.740143 -3.867786 150.305481 945.367432
239 -192.298416 -925.602966 -0.001907 164.410461 -3.076712 147.536743 945.367432
240 -192.298416 -925.602966 -0.001907 161.798981 -2.298342 144.994827 945.367432
[Spine1]
238 290.604584 5.007505 0.000477 10.401655 -2.290807 22.076897 290.647736
239 290.604584 5.007505 0.000477 10.428233 -2.688630 27.226328 290.647736
240 290.604584 5.007505 0.000477 10.299843 -3.345129 32.512268 290.647736
[L_Leg01]
238 761.932007 -0.002384 -0.069261 58.733814 -37.754108 -57.219933 761.932068
239 761.932007 -0.002384 -0.069261 62.454426 -32.207588 -62.048344 761.932068
240 761.932007 -0.002384 -0.069261 65.267075 -26.967005 -65.933029 761.932068
[L_Leg02]
238 1441.140503 -0.000954 -0.000715 -1.294810 0.733774 -110.496567 1441.140503
239 1441.140503 -0.000954 -0.000715 -1.286547 0.690564 -111.755760 1441.140503
240 1441.140503 -0.000954 -0.000715 -1.230633 0.644756 -113.940308 1441.140503
[L_Leg03]
238 1686.963989 -0.000715 -0.000954 0.072212 -0.014384 90.630074 1686.963989
239 1686.963989 -0.000715 -0.000954 0.066778 -0.013664 92.438576 1686.963989
240 1686.963989 -0.000715 -0.000954 0.061369 -0.012773 94.247047 1686.963989
[L_Foot]
238 3041.570068 -30.715107 11.297464 -13.638230 14.999563 75.932785 3041.746094
239 3041.570068 -30.715107 11.297464 -12.729023 14.983294 77.564766 3041.746094
240 3041.570068 -30.715107 11.297464 -12.012899 14.957184 79.451149 3041.746094
[L_Toe1_01]
238 -188.216690 -224.732346 -21.137953 82.604012 -4.810462 -165.307816 293.899567
239 -188.216690 -224.732346 -21.137953 82.527672 -4.691206 -165.132111 293.899567
240 -188.216690 -224.732346 -21.137953 82.415176 -4.397355 -164.843185 293.899567
[L_Toe2_01]
238 200.746536 -219.926590 148.838394 -80.777420 -15.070732 -44.582783 332.896027
239 200.746536 -219.926590 148.838394 -80.822426 -14.974524 -44.594246 332.896027
240 200.746536 -219.926590 148.838394 -80.867432 -14.878319 -44.605774 332.896027
[L_Toe3_01]
238 188.832520 -219.859131 -191.078659 -92.165115 17.340038 -45.657642 347.140900
239 188.832520 -219.859131 -191.078659 -92.153313 17.483238 -45.780746 347.140900
240 188.832520 -219.859131 -191.078659 -92.197037 17.843081 -45.920860 347.140900
[planeAlignerLeft]
238 0.812531 -811.448792 -0.314951 0.000000 -90.000000 -90.001900 811.449280
239 0.812531 -811.448792 -0.314951 0.000000 -90.000000 -90.001900 811.449280
240 0.812531 -811.448792 -0.314951 0.000000 -90.000000 -90.001900 811.449280
[L_Toe1_02]
238 413.761139 0.000477 0.000000 0.001413 -22.368570 0.001413 413.761139
239 413.761139 0.000477 0.000000 0.001411 -22.512285 0.001411 413.761139
240 413.761139 0.000477 0.000000 0.001410 -22.655998 0.001410 413.761139
[L_Toe1_03]
238 464.317322 0.000358 -0.000089 0.016082 81.629845 0.016082 464.317322
239 464.317322 0.000358 -0.000089 0.015118 81.095085 0.015118 464.317322
240 464.317322 0.000358 -0.000089 0.013835 80.267082 0.013835 464.317322
[L_Toe2_02]
238 342.235809 -0.000477 0.000238 0.001181 -77.555183 0.001181 342.235809
239 342.235809 -0.000477 0.000238 0.001180 -77.667252 0.001180 342.235809
240 342.235809 -0.000477 0.000238 0.001180 -77.779366 0.001180 342.235809
[L_Toe2_03]
238 420.210846 -0.000715 0.000000 -179.996109 78.324760 -179.992584 420.210846
239 420.210846 -0.000715 0.000000 -179.996353 77.802658 -179.992828 420.210846
240 420.210846 -0.000715 0.000000 -179.996735 76.887093 -179.993210 420.210846
[L_Toe3_02]
238 329.270111 0.000954 0.000000 0.001177 -81.690804 0.001177 329.270111
239 329.270111 0.000954 0.000000 0.001177 -81.767654 0.001177 329.270111
240 329.270111 0.000954 0.000000 0.001177 -81.844383 0.001177 329.270111
[L_Toe3_03]
238 439.137451 -0.001907 0.000954 -179.997787 73.389847 -179.994263 439.137451
239 439.137451 -0.001907 0.000954 -179.997864 73.103600 -179.994324 439.137451
240 439.137451 -0.001907 0.000954 -179.997910 72.817307 -179.994400 439.137451
[planeLockWeightLeft]
238 -0.000954 0.000238 -0.000305 -0.011826 -0.004376 0.005620 0.001029
239 -0.000954 0.000238 -0.000305 -0.011826 -0.004376 0.005620 0.001029
240 -0.000954 0.000238 -0.000305 -0.011826 -0.004376 0.005620 0.001029
[R_Leg01]
238 761.455627 -0.001907 -0.000358 94.768127 -9.978167 82.711266 761.455688
239 761.455627 -0.001907 -0.000358 94.463181 -3.734138 81.966080 761.455688
240 761.455627 -0.001907 -0.000358 94.025688 2.858900 80.878426 761.455688
[R_Leg02]
238 1441.140625 0.000000 -0.000238 0.202025 0.008017 -75.285027 1441.140625
239 1441.140625 0.000000 -0.000238 0.202054 0.007269 -74.860977 1441.140625
240 1441.140625 0.000000 -0.000238 0.201946 0.009807 -76.300430 1441.140625
[R_Leg03]
238 1686.963989 0.000954 0.001431 -0.129126 0.008135 75.395355 1686.963989
239 1686.963989 0.000954 0.001431 -0.129163 0.007523 74.852646 1686.963989
240 1686.963989 0.000954 0.001431 -0.125142 0.006614 76.770737 1686.963989
[R_Foot]
238 3041.560059 -30.531288 -11.204481 10.344644 -22.297424 91.940018 3041.734131
239 3041.560059 -30.531288 -11.204481 11.655787 -22.198069 92.788078 3041.734131
240 3041.560059 -30.531288 -11.204481 12.961595 -22.023436 93.239746 3041.734131
[planeAlignerRight]
238 -0.635147 -812.270569 -0.364304 0.000000 -89.960434 -90.005180 812.270874
239 -0.635147 -812.270569 -0.364304 0.000000 -89.960434 -90.005180 812.270874
240 -0.635147 -812.270569 -0.364304 0.000000 -89.960434 -90.005180 812.270874
[R_Toe1_01]
238 -188.383347 -224.864899 21.052242 93.951668 1.602679 -164.516479 294.101532
239 -188.383347 -224.864899 21.052242 94.022095 1.120983 -164.758759 294.101532
240 -188.383347 -224.864899 21.052242 94.146706 0.403767 -162.835907 294.101532
[R_Toe2_01]
238 200.637817 -220.002121 -148.787384 -94.125816 13.675554 -43.645580 332.857574
239 200.637817 -220.002121 -148.787384 -93.700073 13.624936 -42.155979 332.857574
240 200.637817 -220.002121 -148.787384 -93.709000 13.124417 -42.627647 332.857574
[R_Toe3_01]
238 188.606735 -220.092957 191.126343 -77.607521 -18.257637 -46.335587 347.192566
239 188.606735 -220.092957 191.126343 -77.775803 -19.462566 -45.272285 347.192566
240 188.606735 -220.092957 191.126343 -77.282692 -20.476322 -46.319538 347.192566
[planeLockWeightRight]
238 -0.000477 0.000000 0.000000 -0.011823 -0.004379 -0.000027 0.000477
239 -0.000477 0.000000 0.000000 -0.011823 -0.004379 -0.000027 0.000477
240 -0.000477 0.000000 0.000000 -0.011823 -0.004379 -0.000027 0.000477
[R_Toe1_02]
238 413.762085 0.000477 -0.000119 0.001407 -23.026804 0.001407 413.762085
239 413.762085 0.000477 -0.000119 0.001404 -23.410538 0.001404 413.762085
240 413.762085 0.000477 -0.000119 0.001397 -24.300201 0.001397 413.762085
[R_Toe1_03]
238 464.317810 0.000000 0.001088 0.011672 78.458755 0.011672 464.317810
239 464.317810 0.000000 0.001088 0.010022 76.549767 0.010022 464.317810
240 464.317810 0.000000 0.001088 0.007411 71.775902 0.007411 464.317810
[R_Toe2_02]
238 342.234741 -0.000954 0.000238 -0.002335 -78.435356 -0.002335 342.234741
239 342.234741 -0.000954 0.000238 -0.002334 -79.145729 -0.002334 342.234741
240 342.234741 -0.000954 0.000238 -0.002333 -79.480194 -0.002333 342.234741
[R_Toe2_03]
238 420.210846 0.000715 -0.000268 -179.994339 73.032394 -179.997879 420.210846
239 420.210846 0.000715 -0.000268 -179.995056 69.052132 -179.998611 420.210846
240 420.210846 0.000715 -0.000268 -179.995407 66.372086 -179.998978 420.210846
[R_Toe3_02]
238 329.270355 -0.000477 -0.000954 0.001177 -81.743172 0.001177 329.270355
239 329.270355 -0.000477 -0.000954 0.001176 -82.319984 0.001176 329.270355
240 329.270355 -0.000477 -0.000954 0.001176 -82.474571 0.001176 329.270355
[R_Toe3_03]
238 439.137939 0.000238 0.001431 -179.997879 73.013992 -179.994339 439.137939
239 439.137939 0.000238 0.001431 -179.998444 70.112068 -179.994904 439.137939
240 439.137939 0.000238 0.001431 -179.998672 68.758293 -179.995102 439.137939
[Rear_Leg02]
238 1162.777710 -0.029802 0.005960 12.064038 -3.273276 -174.768295 1162.777710
239 1162.777710 -0.029802 0.005960 7.469231 -1.669292 -177.389084 1162.777710
240 1162.777710 -0.029802 0.005960 2.274513 -0.526639 -175.994308 1162.777710
[Rear_Leg03]
238 607.192505 -0.013351 -0.073195 0.009887 -0.006197 80.510849 607.192505
239 607.192505 -0.013351 -0.073195 0.009874 -0.006217 80.744141 607.192505
240 607.192505 -0.013351 -0.073195 0.009882 -0.006205 80.601372 607.192505
[Rear_Leg04]
238 995.874512 -0.020504 -0.011921 -0.043623 -0.013367 105.808884 995.874573
239 995.874512 -0.020504 -0.011921 -0.042352 -0.014704 107.526375 995.874573
240 995.874512 -0.020504 -0.011921 -0.042199 -0.015138 106.350639 995.874573
[Rear_Foot]
238 3096.176270 -0.067472 -0.041425 -69.716393 76.680046 83.200661 3096.176270
239 3096.176270 -0.067472 -0.041425 -45.464714 79.191307 109.481041 3096.176270
240 3096.176270 -0.067472 -0.041425 -12.230945 78.724403 141.580261 3096.176270
[planeAlignerCenter]
238 0.350077 0.966311 -838.790894 0.000009 0.000003 -179.999985 838.791565
239 0.350077 0.966311 -838.790894 0.000009 0.000003 -179.999985 838.791565
240 0.350077 0.966311 -838.790894 0.000009 0.000003 -179.999985 838.791565
[Rear_Toe1_01]
238 0.653352 83.966492 -371.173737 0.093887 39.581280 90.042236 380.553192
239 0.653352 83.966492 -371.173737 0.092041 39.527378 90.042358 380.553192
240 0.653352 83.966492 -371.173737 0.090511 39.652561 90.041336 380.553192
[Rear_Toe2_01]
238 178.200760 -294.826019 -362.060547 47.347618 83.985359 -19.843218 499.765686
239 178.200760 -294.826019 -362.060547 40.682125 82.661316 -26.236155 499.765686
240 178.200760 -294.826019 -362.060547 33.335186 80.928658 -33.261864 499.765686
[Rear_Toe3_01]
238 -153.359680 -308.780914 -362.060852 -57.762802 82.681656 -169.185257 499.952881
239 -153.359680 -308.780914 -362.060852 -51.473442 81.400246 -163.195572 499.952881
240 -153.359680 -308.780914 -362.060852 -44.139408 79.744179 -156.235107 499.952881
[planeLockWeightCenter]
238 -0.000062 0.000238 0.000000 -0.011814 -0.004373 -0.000015 0.000246
239 -0.000062 0.000238 0.000000 -0.011814 -0.004373 -0.000015 0.000246
240 -0.000062 0.000238 0.000000 -0.011814 -0.004373 -0.000015 0.000246
[Rear_Toe1_02]
238 379.707825 0.194073 0.000477 -0.002648 -32.634098 -0.002648 379.707855
239 379.707825 0.194073 0.000477 -0.002645 -32.885139 -0.002645 379.707855
240 379.707825 0.194073 0.000477 -0.002642 -33.136173 -0.002642 379.707855
[Rear_Toe1_03]
238 500.129700 0.165701 0.000119 -179.946884 88.717628 -179.950378 500.129761
239 500.129700 0.165701 0.000119 -0.030129 87.932846 -0.033628 500.129761
240 500.129700 0.165701 0.000119 -0.010413 84.584053 -0.013914 500.129761
[Rear_Toe2_02]
238 340.494507 0.000238 -0.000954 179.998825 -87.642830 179.998825 340.494507
239 340.494507 0.000238 -0.000954 179.998825 -87.879021 179.998825 340.494507
240 340.494507 0.000238 -0.000954 179.998825 -88.395256 179.998825 340.494507
[Rear_Toe2_03]
238 433.103577 0.000000 0.000238 -179.996185 56.491714 -179.999832 433.103546
239 433.103577 0.000000 0.000238 -179.996094 57.939545 -179.999741 433.103546
240 433.103577 0.000000 0.000238 -179.995956 60.253445 -179.999573 433.103546
[Rear_Toe3_02]
238 340.494141 -0.000358 -0.000477 -179.995941 -87.704590 -179.995941 340.494171
239 340.494141 -0.000358 -0.000477 -179.997681 -87.954735 -179.997681 340.494171
240 340.494141 -0.000358 -0.000477 -179.997681 -88.505768 -179.997681 340.494171
[Rear_Toe3_03]
238 433.103577 0.001431 -0.000238 179.992249 56.806355 179.999542 433.103546
239 433.103577 0.001431 -0.000238 179.992065 58.324303 179.999344 433.103546
240 433.103577 0.001431 -0.000238 -179.999527 60.717171 -179.995926 433.103546
[Back_Bone]
238 1312.175781 -701.934692 0.000954 0.721591 0.000132 -90.578873 1488.125488
239 1312.175781 -701.934692 0.000954 0.741403 0.000302 -90.409531 1488.125488
240 1312.175781 -701.934692 0.000954 0.755390 0.000214 -90.388550 1488.125488
[Head]
238 1406.159424 809.709290 0.001431 -1.892858 2.444118 2.583663 1622.625488
239 1406.159424 809.709290 0.001431 -2.314366 2.331486 2.171294 1622.625488
240 1406.159424 809.709290 0.001431 -2.735016 2.215825 1.759795 1622.625488
[Motor_Bone]
238 1158.364380 -417.834747 0.000477 -3.495431 0.583971 -105.401497 1231.419434
239 1158.364380 -417.834747 0.000477 0.251917 -0.541827 -106.527916 1231.419434
240 1158.364380 -417.834747 0.000477 2.270552 -1.149516 -107.133400 1231.419434
[Ping_Mechanism]
238 1249.163086 -448.578796 -5.315056 0.000103 -0.000053 82.120995 1327.275146
239 1226.290649 -438.827759 -7.852628 0.000103 -0.000053 82.120995 1302.467041
240 1203.993530 -426.642700 -9.003493 0.000103 -0.000053 82.120995 1277.382324
[BN_LookIK]
238 193.241119 1380.371704 -0.002861 0.000000 89.965736 -31.038179 1393.832153
239 193.241119 1380.371704 -0.002861 0.000000 89.965736 -31.038179 1393.832153
240 193.241119 1380.371704 -0.002861 0.000000 89.965736 -31.038179 1393.832153
[bottomMouth]
238 -435.092926 615.759399 -0.000954 -0.000022 0.000016 73.527184 753.966492
239 -435.092926 615.759399 -0.000954 -0.000022 0.000016 73.527184 753.966492
240 -435.092926 615.759399 -0.000954 -0.000022 0.000016 73.527184 753.966492
[L_Mouth01]
238 554.440979 7.658243 838.222046 150.204178 23.759130 109.605339 1005.027161
239 554.440979 7.658243 838.222046 150.204178 23.759130 109.605339 1005.027161
240 554.440979 7.658243 838.222046 150.204178 23.759130 109.605339 1005.027161
[L_mouthFront]
238 551.629089 934.514771 339.150421 0.000081 2.804060 79.119301 1136.941284
239 551.629089 934.514771 339.150421 0.000081 2.804060 79.119301 1136.941284
240 551.629089 934.514771 339.150421 0.000081 2.804060 79.119301 1136.941284
[mouthGun]
238 55.332661 1627.420898 0.000000 0.000023 0.000009 -11.038128 1628.361328
239 55.332661 1627.420898 0.000000 0.000023 0.000009 -11.038128 1628.361328
240 55.332661 1627.420898 0.000000 0.000023 0.000009 -11.038128 1628.361328
[R_Mouth01]
238 554.442383 7.659197 -838.223938 29.795891 -23.759109 109.605331 1005.029541
239 554.442383 7.659197 -838.223938 29.795891 -23.759109 109.605331 1005.029541
240 554.442383 7.659197 -838.223938 29.795891 -23.759109 109.605331 1005.029541
[R_mouthFront]
238 551.629089 934.514282 -339.151367 0.000029 -2.803930 79.119133 1136.941162
239 551.629089 934.514282 -339.151367 0.000029 -2.803930 79.119133 1136.941162
240 551.629089 934.514282 -339.151367 0.000029 -2.803930 79.119133 1136.941162
[TopMouth]
238 461.269867 -56.106091 -0.008583 -0.000059 -0.000268 92.025169 464.669525
239 461.269867 -56.106091 -0.008583 -0.000059 -0.000268 92.025169 464.669525
240 461.269867 -56.106091 -0.008583 -0.000059 -0.000268 92.025169 464.669525
[weapon_bone]
238 -987.239868 1448.372803 0.001431 0.000000 89.965736 -31.038221 1752.833740
239 -987.239868 1448.372803 0.001431 0.000000 89.965736 -31.038221 1752.833740
240 -987.239868 1448.372803 0.001431 0.000000 89.965736 -31.038221 1752.833740
